<svg xmlns="http://www.w3.org/2000/svg" width="780" height="440" viewBox="0 0 780 440" fill="none"><rect width="780" height="440" fill="url(#paint0_radial_46601_43)"></rect><rect opacity="0.2" x="143" y="67" width="500" height="310" rx="10" fill="#026661"></rect><rect x="136.75" y="62.75" width="498.5" height="306.5" rx="9.25" fill="#EBF9EB" stroke="#040404" stroke-width="1.5"></rect><path d="M136.75 72C136.75 66.8914 140.891 62.75 146 62.75H626.401C631.509 62.75 635.651 66.8914 635.651 72V96.6102H136.75V72Z" fill="#59CB59" stroke="#040404" stroke-width="1.5"></path><path d="M166.451 86.4737C169.659 86.4737 172.259 83.8735 172.259 80.666C172.259 77.4586 169.659 74.8584 166.451 74.8584C163.244 74.8584 160.644 77.4586 160.644 80.666C160.644 83.8735 163.244 86.4737 166.451 86.4737Z" fill="white" stroke="#040404" stroke-width="1.5" stroke-miterlimit="10"></path><path d="M188.64 86.4737C191.847 86.4737 194.447 83.8735 194.447 80.666C194.447 77.4586 191.847 74.8584 188.64 74.8584C185.432 74.8584 182.832 77.4586 182.832 80.666C182.832 83.8735 185.432 86.4737 188.64 86.4737Z" fill="white" stroke="#040404" stroke-width="1.5" stroke-miterlimit="10"></path><path d="M211.443 86.4737C214.65 86.4737 217.251 83.8735 217.251 80.666C217.251 77.4586 214.65 74.8584 211.443 74.8584C208.235 74.8584 205.635 77.4586 205.635 80.666C205.635 83.8735 208.235 86.4737 211.443 86.4737Z" fill="white" stroke="#040404" stroke-width="1.5" stroke-miterlimit="10"></path><path d="M491.658 212.379H275.043C273.938 212.379 273.043 213.274 273.043 214.379V342.006C273.043 343.11 273.938 344.006 275.043 344.006H491.658C492.763 344.006 493.658 343.11 493.658 342.006V214.379C493.658 213.274 492.763 212.379 491.658 212.379Z" fill="white" stroke="#040404" stroke-width="1.5" stroke-miterlimit="10"></path><g opacity="0.25"><path d="M273.26 231.766H493.659" stroke="#040404" stroke-miterlimit="10"></path><path d="M273.26 255.069H493.659" stroke="#040404" stroke-miterlimit="10"></path><path d="M273.26 278.19H493.659" stroke="#040404" stroke-miterlimit="10"></path><path d="M273.26 301.494H493.659" stroke="#040404" stroke-miterlimit="10"></path><path d="M273.26 324.619H493.659" stroke="#040404" stroke-miterlimit="10"></path></g><path d="M290.209 316.521L336.235 291.967L382.261 304.189L428.177 267.412L474.204 291.967" stroke="#040404" stroke-width="1.5" stroke-linecap="round" stroke-linejoin="round"></path><path d="M290.209 267.412L336.235 242.748L382.261 279.635L428.177 291.967L474.204 255.08" stroke="#040404" stroke-width="1.5" stroke-linecap="round" stroke-linejoin="round"></path><path d="M293.511 320.045C296.613 320.045 299.127 317.531 299.127 314.43C299.127 311.328 296.613 308.814 293.511 308.814C290.41 308.814 287.896 311.328 287.896 314.43C287.896 317.531 290.41 320.045 293.511 320.045Z" fill="#FFE16E" stroke="#040404" stroke-width="1.5" stroke-miterlimit="10"></path><path d="M336.672 297.583C339.774 297.583 342.288 295.068 342.288 291.967C342.288 288.866 339.774 286.351 336.672 286.351C333.571 286.351 331.057 288.866 331.057 291.967C331.057 295.068 333.571 297.583 336.672 297.583Z" fill="#FFE16E" stroke="#040404" stroke-width="1.5" stroke-miterlimit="10"></path><path d="M382.038 307.823C385.14 307.823 387.654 305.309 387.654 302.207C387.654 299.106 385.14 296.591 382.038 296.591C378.937 296.591 376.423 299.106 376.423 302.207C376.423 305.309 378.937 307.823 382.038 307.823Z" fill="#FFE16E" stroke="#040404" stroke-width="1.5" stroke-miterlimit="10"></path><path d="M428.065 272.698C431.167 272.698 433.681 270.183 433.681 267.082C433.681 263.981 431.167 261.466 428.065 261.466C424.964 261.466 422.45 263.981 422.45 267.082C422.45 270.183 424.964 272.698 428.065 272.698Z" fill="#59CB59" stroke="#040404" stroke-width="1.5" stroke-linecap="round" stroke-linejoin="round"></path><path d="M472.772 296.261C475.873 296.261 478.387 293.747 478.387 290.645C478.387 287.544 475.873 285.03 472.772 285.03C469.67 285.03 467.156 287.544 467.156 290.645C467.156 293.747 469.67 296.261 472.772 296.261Z" fill="#FFE16E" stroke="#040404" stroke-width="1.5" stroke-miterlimit="10"></path><path d="M293.511 270.936C296.613 270.936 299.127 268.422 299.127 265.32C299.127 262.219 296.613 259.704 293.511 259.704C290.41 259.704 287.896 262.219 287.896 265.32C287.896 268.422 290.41 270.936 293.511 270.936Z" fill="#59CB59" stroke="#040404" stroke-width="1.5" stroke-miterlimit="10"></path><path d="M336.672 248.363C339.774 248.363 342.288 245.849 342.288 242.747C342.288 239.646 339.774 237.132 336.672 237.132C333.571 237.132 331.057 239.646 331.057 242.747C331.057 245.849 333.571 248.363 336.672 248.363Z" fill="#59CB59" stroke="#040404" stroke-width="1.5" stroke-miterlimit="10"></path><path d="M382.038 283.268C385.14 283.268 387.654 280.754 387.654 277.653C387.654 274.551 385.14 272.037 382.038 272.037C378.937 272.037 376.423 274.551 376.423 277.653C376.423 280.754 378.937 283.268 382.038 283.268Z" fill="#59CB59" stroke="#040404" stroke-width="1.5" stroke-miterlimit="10"></path><path d="M428.065 296.261C431.167 296.261 433.681 293.747 433.681 290.645C433.681 287.544 431.167 285.03 428.065 285.03C424.964 285.03 422.45 287.544 422.45 290.645C422.45 293.747 424.964 296.261 428.065 296.261Z" fill="#FFE16E" stroke="#040404" stroke-width="1.5" stroke-miterlimit="10"></path><path d="M472.772 261.466C475.873 261.466 478.387 258.952 478.387 255.85C478.387 252.749 475.873 250.235 472.772 250.235C469.67 250.235 467.156 252.749 467.156 255.85C467.156 258.952 469.67 261.466 472.772 261.466Z" fill="#59CB59" stroke="#040404" stroke-width="1.5" stroke-miterlimit="10"></path><path d="M160.55 144C160.55 143.31 161.11 142.75 161.8 142.75H259.836C260.527 142.75 261.086 143.31 261.086 144V343.052C261.086 343.742 260.527 344.302 259.836 344.302H161.8C161.11 344.302 160.55 343.742 160.55 343.052V144Z" fill="white" stroke="#040404" stroke-width="1.5"></path><path d="M206.737 214.446H243.47" stroke="#040404" stroke-width="1.5"></path><path d="M206.737 248.118H243.47" stroke="#040404" stroke-width="1.5"></path><path d="M206.737 281.79H243.47" stroke="#040404" stroke-width="1.5"></path><path d="M206.737 315.462H243.47" stroke="#040404" stroke-width="1.5"></path><circle cx="185.371" cy="214.508" r="13.327" fill="#006B40"></circle><path d="M188.959 215.913L189.316 212.845H186.75V211.233C186.75 210.34 187.071 209.576 188.222 209.576L189.508 209.575V206.817C189.048 206.779 188.247 206.696 187.234 206.696C185.118 206.696 183.534 208.288 183.534 210.927V212.845H181.236V215.913H183.534V223.051C184.129 223.173 184.743 223.239 185.372 223.239C185.84 223.239 186.3 223.202 186.75 223.133V215.913H188.959Z" fill="white"></path><circle cx="185.371" cy="248.18" r="13.327" fill="#006B40"></circle><path d="M185.329 241.35C187.4 241.35 187.633 241.35 188.457 241.413C189.218 241.435 189.641 241.582 189.916 241.688C190.275 241.815 190.55 241.984 190.825 242.259C191.099 242.534 191.269 242.787 191.395 243.168C191.501 243.443 191.607 243.844 191.67 244.626C191.691 245.451 191.734 245.704 191.734 247.755C191.734 249.805 191.734 250.059 191.67 250.883C191.649 251.644 191.501 252.067 191.395 252.342C191.269 252.701 191.099 252.976 190.825 253.251C190.55 253.525 190.296 253.694 189.916 253.821C189.641 253.927 189.239 254.033 188.457 254.096C187.633 254.117 187.379 254.159 185.329 254.159C183.279 254.159 183.025 254.159 182.2 254.096C181.44 254.075 181.017 253.927 180.742 253.821C180.383 253.694 180.108 253.525 179.833 253.251C179.558 252.976 179.389 252.722 179.262 252.342C179.157 252.067 179.051 251.665 178.988 250.883C178.966 250.059 178.924 249.805 178.924 247.755C178.924 245.704 178.924 245.451 178.988 244.626C179.009 243.865 179.157 243.443 179.262 243.168C179.389 242.808 179.558 242.534 179.833 242.259C180.108 241.984 180.362 241.815 180.742 241.688C181.017 241.582 181.418 241.477 182.2 241.413C183.004 241.35 183.257 241.35 185.329 241.35ZM185.329 239.955C183.215 239.955 182.983 239.955 182.116 240.018C181.292 240.039 180.721 240.187 180.235 240.378C179.706 240.568 179.305 240.843 178.861 241.287C178.417 241.73 178.184 242.132 177.952 242.661C177.762 243.147 177.614 243.739 177.592 244.542C177.571 245.366 177.529 245.641 177.529 247.755C177.529 249.868 177.529 250.101 177.592 250.968C177.614 251.792 177.762 252.363 177.952 252.849C178.142 253.377 178.417 253.779 178.861 254.223C179.305 254.667 179.706 254.899 180.235 255.132C180.721 255.322 181.313 255.47 182.116 255.491C182.94 255.512 183.215 255.554 185.329 255.554C187.443 255.554 187.675 255.554 188.542 255.491C189.366 255.47 189.937 255.322 190.423 255.132C190.952 254.942 191.353 254.667 191.797 254.223C192.241 253.779 192.473 253.377 192.706 252.849C192.896 252.363 193.044 251.771 193.065 250.968C193.086 250.143 193.129 249.868 193.129 247.755C193.129 245.641 193.129 245.408 193.065 244.542C193.044 243.717 192.896 243.147 192.706 242.661C192.516 242.132 192.241 241.73 191.797 241.287C191.353 240.843 190.952 240.61 190.423 240.378C189.937 240.187 189.345 240.039 188.542 240.018C187.675 239.955 187.443 239.955 185.329 239.955Z" fill="white"></path><path d="M185.33 243.718C183.132 243.718 181.356 245.493 181.356 247.692C181.356 249.89 183.132 251.665 185.33 251.665C187.529 251.665 189.304 249.89 189.304 247.692C189.304 245.493 187.529 243.718 185.33 243.718ZM185.33 250.292C183.914 250.292 182.752 249.15 182.752 247.713C182.752 246.275 183.893 245.134 185.33 245.134C186.768 245.134 187.909 246.275 187.909 247.713C187.909 249.129 186.747 250.292 185.33 250.292Z" fill="white"></path><path d="M189.471 244.5C189.984 244.5 190.401 244.083 190.401 243.569C190.401 243.056 189.984 242.639 189.471 242.639C188.957 242.639 188.541 243.056 188.541 243.569C188.541 244.083 188.957 244.5 189.471 244.5Z" fill="white"></path><circle cx="185.371" cy="281.852" r="13.327" fill="#006B40"></circle><path d="M186.043 280.727L190.491 275.667H189.438L185.574 280.059L182.49 275.667H178.93L183.595 282.31L178.93 287.616H179.984L184.061 282.978L187.319 287.616H190.879L186.04 280.727H186.043ZM184.599 282.369L184.128 281.707L180.366 276.443H181.986L185.022 280.69L185.493 281.353L189.438 286.874H187.817L184.599 282.369Z" fill="white"></path><circle cx="185.371" cy="315.524" r="13.327" fill="#006B40"></circle><path d="M186.227 308.319C187.056 308.319 187.886 308.319 188.716 308.319C188.74 308.461 188.74 308.603 188.763 308.746C188.858 309.315 189.024 309.836 189.332 310.31C189.569 310.666 189.901 310.903 190.304 310.998C190.707 311.116 191.11 311.093 191.513 311.093C191.798 311.093 192.106 311.093 192.39 311.093C192.39 311.922 192.39 312.752 192.39 313.582C192.224 313.582 192.082 313.582 191.916 313.582C191.513 313.582 191.11 313.582 190.707 313.558C190.209 313.534 189.759 313.392 189.309 313.203C189.095 313.108 188.906 313.013 188.692 312.894C188.692 312.918 188.692 312.965 188.692 312.989C188.692 314.862 188.692 316.735 188.692 318.584C188.692 319.319 188.526 320.03 188.171 320.694C187.673 321.666 186.914 322.401 185.895 322.851C185.136 323.183 184.354 323.302 183.524 323.231C182.552 323.136 181.675 322.756 180.94 322.116C180.3 321.571 179.85 320.884 179.565 320.078C179.328 319.414 179.257 318.703 179.352 318.015C179.494 316.853 180.015 315.905 180.869 315.123C181.462 314.578 182.173 314.222 182.979 314.032C183.406 313.937 183.856 313.914 184.283 313.914C184.449 313.914 184.615 313.914 184.804 313.914C184.804 314.743 184.804 315.573 184.804 316.403C184.638 316.403 184.449 316.403 184.283 316.403C184.022 316.403 183.737 316.403 183.477 316.474C182.576 316.687 181.912 317.47 181.841 318.394C181.77 319.271 182.125 319.959 182.86 320.433C183.145 320.623 183.477 320.718 183.809 320.741C184.496 320.789 185.089 320.575 185.563 320.101C186.013 319.651 186.203 319.106 186.179 318.465C186.179 318.015 186.179 317.588 186.179 317.138C186.179 316.711 186.179 316.261 186.179 315.834C186.179 315.407 186.179 314.957 186.179 314.53C186.179 314.103 186.179 313.653 186.179 313.226C186.179 312.8 186.179 312.349 186.179 311.922C186.179 311.496 186.179 311.045 186.179 310.619C186.179 310.192 186.179 309.741 186.179 309.315C186.179 309.006 186.179 308.698 186.179 308.39C186.227 308.414 186.227 308.366 186.227 308.319Z" fill="white"></path><path d="M174.085 160.366H247.552" stroke="#040404" stroke-width="1.5"></path><path d="M174.086 173.331H247.552" stroke="#040404" stroke-width="1.5"></path><path d="M174.086 187.916H210.819" stroke="#040404" stroke-width="1.5"></path><rect x="160.75" y="109.75" width="449.5" height="19.5" rx="2.25" fill="white" stroke="#040404" stroke-width="1.5"></rect><path d="M602 125L599 122" stroke="#040404" stroke-width="1.5" stroke-linejoin="round"></path><path d="M596 123C598.209 123 600 121.209 600 119C600 116.791 598.209 115 596 115C593.791 115 592 116.791 592 119C592 121.209 593.791 123 596 123Z" stroke="#040404" stroke-width="1.5" stroke-linejoin="round"></path><path d="M179 120H277.562" stroke="#040404" stroke-width="1.5" stroke-linejoin="round"></path><path d="M609 212.379H507.903C506.798 212.379 505.903 213.274 505.903 214.379V268.54C505.903 269.644 506.798 270.54 507.903 270.54H609C610.105 270.54 611 269.644 611 268.54V214.379C611 213.274 610.105 212.379 609 212.379Z" fill="white" stroke="#040404" stroke-width="1.5" stroke-miterlimit="10"></path><g opacity="0.98"><path d="M567.125 239.228H601.817" stroke="#040404" stroke-width="1.5" stroke-linecap="round"></path><path d="M567.125 224.623H601.817" stroke="#040404" stroke-width="1.5" stroke-linecap="round"></path><path d="M567.125 245.584H601.817" stroke="#040404" stroke-width="1.5" stroke-linecap="round"></path><path d="M567.125 251.939H601.817" stroke="#040404" stroke-width="1.5" stroke-linecap="round"></path><path d="M567.125 258.295H601.817" stroke="#040404" stroke-width="1.5" stroke-linecap="round"></path></g><path d="M526.926 241.34C527.028 238.815 528.033 236.325 529.956 234.396C530.035 234.316 530.12 234.248 530.205 234.169C532.219 232.28 534.795 231.332 537.376 231.344V220.542C532.032 220.531 526.688 222.527 522.564 226.527C522.484 226.607 522.399 226.68 522.32 226.76C518.286 230.793 516.221 236.052 516.113 241.34H526.921H526.926Z" fill="#006B40" stroke="#040404" stroke-width="1.5" stroke-miterlimit="10"></path><path d="M544.495 234.218L552.137 226.577C548.03 222.571 542.708 220.557 537.375 220.546V231.348C539.94 231.359 542.498 232.323 544.495 234.218Z" fill="white" stroke="#040404" stroke-width="1.5" stroke-linecap="round" stroke-linejoin="round"></path><path d="M537.368 262.983C542.78 262.972 548.192 260.901 552.322 256.771C552.402 256.691 552.476 256.606 552.555 256.527L544.913 248.885C544.834 248.964 544.766 249.055 544.686 249.135C542.667 251.154 540.017 252.17 537.368 252.187C534.685 252.198 531.995 251.183 529.947 249.135C529.885 249.072 529.828 249.004 529.772 248.936C527.758 246.814 526.81 244.063 526.918 241.34H516.111C516.003 246.826 518.005 252.351 522.135 256.578C522.198 256.64 522.255 256.708 522.317 256.771C526.475 260.929 531.922 263 537.374 262.983H537.368Z" fill="#59CB59" stroke="#040404" stroke-width="1.5" stroke-linecap="round" stroke-linejoin="round"></path><path d="M558.528 241.34C558.42 236.052 556.361 230.793 552.322 226.76C552.259 226.697 552.191 226.641 552.129 226.578L544.487 234.22C544.549 234.282 544.623 234.333 544.686 234.396C546.614 236.325 547.613 238.815 547.715 241.34C547.823 244.04 546.892 246.769 544.907 248.885L552.549 256.527C556.639 252.306 558.63 246.809 558.523 241.34H558.528Z" fill="#98E58E" stroke="#040404" stroke-width="1.5" stroke-miterlimit="10"></path><path d="M609 287.886H507.903C506.798 287.886 505.903 288.781 505.903 289.886V342.167C505.903 343.272 506.798 344.167 507.903 344.167H609C610.105 344.167 611 343.272 611 342.167V289.886C611 288.781 610.105 287.886 609 287.886Z" fill="white" stroke="#040404" stroke-width="1.5" stroke-miterlimit="10"></path><g opacity="0.98"><path d="M567.125 313.715H601.817" stroke="#040404" stroke-width="1.5" stroke-linecap="round"></path><path d="M567.125 299.11H601.817" stroke="#040404" stroke-width="1.5" stroke-linecap="round"></path><path d="M567.125 320.07H601.817" stroke="#040404" stroke-width="1.5" stroke-linecap="round"></path><path d="M567.125 326.426H601.817" stroke="#040404" stroke-width="1.5" stroke-linecap="round"></path><path d="M567.125 332.782H601.817" stroke="#040404" stroke-width="1.5" stroke-linecap="round"></path></g><path d="M527.09 314.984C527.207 312.445 528.223 309.906 530.137 307.992C530.215 307.914 530.293 307.836 530.371 307.757C532.402 305.843 535.02 304.906 537.598 304.906V294.008C532.207 294.008 526.817 296 522.676 300.023C522.598 300.101 522.52 300.18 522.442 300.258C518.38 304.32 516.27 309.632 516.192 314.984H527.09Z" fill="#FFE16E" stroke="#040404" stroke-width="1.5" stroke-miterlimit="10"></path><path d="M537.595 336.819C543.063 336.819 548.532 334.71 552.672 330.57C552.75 330.491 552.829 330.413 552.907 330.335L545.212 322.64C545.134 322.718 545.055 322.796 544.977 322.874C542.946 324.906 540.251 325.921 537.595 325.96C534.9 325.96 532.165 324.945 530.095 322.874C530.017 322.796 529.978 322.757 529.9 322.679C527.869 320.531 526.892 317.757 527.009 315.023H516.111C515.994 320.57 518.025 326.117 522.205 330.374C522.283 330.452 522.322 330.491 522.4 330.57C526.619 334.749 532.126 336.819 537.595 336.819Z" fill="#FFBC00" stroke="#040404" stroke-width="1.5" stroke-miterlimit="10"></path><path d="M558.957 314.984C558.84 309.632 556.77 304.359 552.707 300.258C552.629 300.18 552.59 300.14 552.512 300.062C552.512 300.062 551.926 299.476 551.653 299.281C547.629 295.766 542.629 294.008 537.63 294.008V304.906C539.895 304.906 542.122 305.648 543.997 307.093C544.036 307.093 544.036 307.132 544.075 307.171C544.192 307.25 544.27 307.328 544.387 307.445C544.426 307.484 544.465 307.523 544.504 307.523C544.622 307.601 544.7 307.718 544.817 307.796C544.895 307.875 544.934 307.914 545.012 307.992C546.965 309.945 547.981 312.445 548.059 314.984C548.176 317.718 547.239 320.452 545.247 322.601L552.942 330.296C557.043 326.038 559.074 320.491 558.957 314.984Z" fill="#FDEFCD" stroke="#040404" stroke-width="1.5" stroke-miterlimit="10"></path><rect x="273.75" y="142.75" width="104.5" height="53.5" rx="1.25" fill="white" stroke="#040404" stroke-width="1.5"></rect><path d="M321 160H346" stroke="#040404" stroke-width="1.5"></path><path d="M310.95 172.985L310.079 173.246L310.689 174.03C310.95 174.378 311.124 174.814 311.124 175.249C311.124 176.207 310.427 177.078 309.47 177.165L308.599 177.339L309.034 178.123C309.208 178.384 309.295 178.732 309.295 178.994C309.295 180.039 308.512 180.91 307.467 180.997H296.058C296.058 180.997 294.665 180.997 293.62 180.126C293.359 179.952 293.184 179.777 293.01 179.69L292.749 179.603V168.979L293.968 167.934L297.974 160.444C298.148 160.183 298.323 159.835 298.323 159.486C298.41 159.138 298.41 158.79 298.41 158.441L298.061 154.261C298.323 154.087 298.671 154 299.019 154C300.761 154 302.241 156.787 302.241 159.051C302.241 159.399 302.241 159.661 302.154 160.009L301.458 164.537H310.166C310.689 164.537 311.298 164.799 311.647 165.147C311.995 165.495 312.256 166.018 312.256 166.54C312.256 167.15 311.995 167.76 311.472 168.108L310.689 168.718L311.56 169.24C312.169 169.588 312.605 170.285 312.605 170.982C312.343 171.94 311.734 172.723 310.95 172.985Z" fill="white" stroke="#040404" stroke-width="1.5" stroke-miterlimit="10" stroke-linejoin="round"></path><path d="M285.697 167.327H292.054C292.489 167.327 292.751 167.675 292.751 168.023V180.39C292.751 180.825 292.402 181.086 292.054 181.086H285.697C285.261 181.086 285 180.738 285 180.39V168.023C285 167.588 285.348 167.327 285.697 167.327Z" fill="#FFC200" stroke="#040404" stroke-width="1.5" stroke-miterlimit="10"></path><path d="M364.572 167H322C320.895 167 320 167.895 320 169V176.76C320 177.865 320.895 178.76 322 178.76H364.572C365.676 178.76 366.572 177.865 366.572 176.76V169C366.572 167.895 365.676 167 364.572 167Z" fill="#59CB59" stroke="#040404" stroke-width="1.5" stroke-miterlimit="10"></path><path d="M365 167H358V178.765H365C366.105 178.765 367 177.869 367 176.765V169C367 167.895 366.105 167 365 167Z" fill="white" stroke="#040404" stroke-width="1.5" stroke-linecap="round" stroke-linejoin="round"></path><rect x="389.75" y="142.75" width="104.5" height="53.5" rx="1.25" fill="white" stroke="#040404" stroke-width="1.5"></rect><path d="M436 160H461" stroke="#040404" stroke-width="1.5"></path><path d="M402 180.169C402 180.169 402.289 166.043 418.641 165.59V160L430 171.406L419.003 181V176.392C418.93 176.468 410.393 173.37 402 180.169Z" fill="#FDEFCD" stroke="#040404" stroke-width="1.5" stroke-miterlimit="10" stroke-linejoin="round"></path><path d="M480.572 167H438C436.895 167 436 167.895 436 169V176.76C436 177.865 436.895 178.76 438 178.76H480.572C481.676 178.76 482.572 177.865 482.572 176.76V169C482.572 167.895 481.676 167 480.572 167Z" fill="#59CB59" stroke="#040404" stroke-width="1.5" stroke-miterlimit="10"></path><path d="M481 167H451V178.735H481C482.105 178.735 483 177.84 483 176.735V169C483 167.895 482.105 167 481 167Z" fill="white" stroke="#040404" stroke-width="1.5" stroke-linecap="round" stroke-linejoin="round"></path><rect x="505.75" y="142.75" width="104.5" height="53.5" rx="1.25" fill="white" stroke="#040404" stroke-width="1.5"></rect><path d="M552 160H577" stroke="#040404" stroke-width="1.5"></path><path d="M520.474 160H544.096C545.464 160 546.57 161.106 546.57 162.474V177.679C546.57 179.047 545.464 180.153 544.096 180.153H541.883V184.293L537.743 180.153H520.474C519.107 180.153 518 179.047 518 177.679V162.474C518 161.106 519.107 160 520.474 160Z" fill="white" stroke="#040404" stroke-width="1.5" stroke-linecap="round" stroke-linejoin="round"></path><path d="M526.342 172.128C527.306 172.128 528.087 171.347 528.087 170.383C528.087 169.419 527.306 168.637 526.342 168.637C525.378 168.637 524.597 169.419 524.597 170.383C524.597 171.347 525.378 172.128 526.342 172.128Z" fill="#98E58E" stroke="#040404" stroke-width="1.09211" stroke-miterlimit="10"></path><path d="M532.407 172.128C533.371 172.128 534.153 171.347 534.153 170.383C534.153 169.419 533.371 168.637 532.407 168.637C531.443 168.637 530.662 169.419 530.662 170.383C530.662 171.347 531.443 172.128 532.407 172.128Z" fill="#98E58E" stroke="#040404" stroke-width="1.09211" stroke-miterlimit="10"></path><path d="M538.228 172.128C539.192 172.128 539.974 171.347 539.974 170.383C539.974 169.419 539.192 168.637 538.228 168.637C537.264 168.637 536.483 169.419 536.483 170.383C536.483 171.347 537.264 172.128 538.228 172.128Z" fill="#98E58E" stroke="#040404" stroke-width="1.09211" stroke-miterlimit="10"></path><path d="M596.572 167H554C552.895 167 552 167.895 552 169V176.76C552 177.865 552.895 178.76 554 178.76H596.572C597.676 178.76 598.572 177.865 598.572 176.76V169C598.572 167.895 597.676 167 596.572 167Z" fill="#59CB59" stroke="#040404" stroke-width="1.5" stroke-miterlimit="10"></path><path d="M597 167H580V178.73H597C598.105 178.73 599 177.835 599 176.73V169C599 167.895 598.105 167 597 167Z" fill="white" stroke="#040404" stroke-width="1.5" stroke-linecap="round" stroke-linejoin="round"></path><defs><radialGradient id="paint0_radial_46601_43" cx="0" cy="0" r="1" gradientUnits="userSpaceOnUse" gradientTransform="translate(390 640.5) rotate(90) scale(640 1134.55)"><stop stop-color="white"></stop><stop offset="1" stop-color="#CCF1EA"></stop></radialGradient></defs></svg>